<svg xmlns="http://www.w3.org/2000/svg" width="1600" height="900" viewBox="0 0 1600 900">
  <defs>
    <linearGradient id="bg" x1="0" y1="0" x2="1" y2="1">
      <stop offset="0%" stop-color="#020617"/>
      <stop offset="100%" stop-color="#071126"/>
    </linearGradient>
    <linearGradient id="panel" x1="0" y1="0" x2="0" y2="1">
      <stop offset="0%" stop-color="#0d1b33"/>
      <stop offset="100%" stop-color="#081220"/>
    </linearGradient>
  </defs>
  <rect width="1600" height="900" fill="url(#bg)"/>
  <circle cx="210" cy="120" r="2" fill="#fff"/>
  <circle cx="350" cy="70" r="2" fill="#fff"/>
  <circle cx="1490" cy="100" r="2" fill="#fff"/>
  <circle cx="1330" cy="190" r="2" fill="#fff"/>
  <circle cx="540" cy="840" r="2" fill="#fff"/>
  <text x="70" y="90" fill="#e2e8f0" font-size="42" font-family="Orbitron, Arial">SpaceOps AI</text>
  <text x="70" y="130" fill="#7dd3fc" font-size="20" font-family="Rajdhani, Arial">Mission dashboard overview</text>
  <rect x="60" y="170" width="1480" height="80" rx="20" fill="#0a1424" stroke="#1ec9ff" stroke-opacity="0.35"/>
  <text x="95" y="220" fill="#e2e8f0" font-size="26" font-family="Rajdhani, Arial">ISS-01 | Low Earth Orbit | AI Mode: Assist | Scenario: Solar Storm</text>
  <rect x="60" y="280" width="280" height="150" rx="20" fill="url(#panel)" stroke="#1ec9ff" stroke-opacity="0.35"/>
  <rect x="360" y="280" width="280" height="150" rx="20" fill="url(#panel)" stroke="#1ec9ff" stroke-opacity="0.35"/>
  <rect x="660" y="280" width="280" height="150" rx="20" fill="url(#panel)" stroke="#1ec9ff" stroke-opacity="0.35"/>
  <rect x="960" y="280" width="280" height="150" rx="20" fill="url(#panel)" stroke="#1ec9ff" stroke-opacity="0.35"/>
  <rect x="1260" y="280" width="280" height="150" rx="20" fill="url(#panel)" stroke="#1ec9ff" stroke-opacity="0.35"/>
  <text x="90" y="330" fill="#7dd3fc" font-size="18" font-family="Orbitron, Arial">Status</text>
  <text x="90" y="390" fill="#00ffd1" font-size="42" font-family="Exo 2, Arial">WARNING</text>
  <text x="390" y="330" fill="#7dd3fc" font-size="18" font-family="Orbitron, Arial">Risk</text>
  <text x="390" y="390" fill="#e2e8f0" font-size="42" font-family="Exo 2, Arial">61.4%</text>
  <text x="690" y="330" fill="#7dd3fc" font-size="18" font-family="Orbitron, Arial">Life Left</text>
  <text x="690" y="390" fill="#e2e8f0" font-size="42" font-family="Exo 2, Arial">43.2</text>
  <text x="990" y="330" fill="#7dd3fc" font-size="18" font-family="Orbitron, Arial">Fault Type</text>
  <text x="990" y="390" fill="#e2e8f0" font-size="28" font-family="Rajdhani, Arial">Power Bus Instability</text>
  <text x="1290" y="330" fill="#7dd3fc" font-size="18" font-family="Orbitron, Arial">Severity</text>
  <text x="1290" y="390" fill="#ff6b00" font-size="42" font-family="Exo 2, Arial">Warning</text>
  <rect x="60" y="470" width="910" height="360" rx="22" fill="url(#panel)" stroke="#1ec9ff" stroke-opacity="0.35"/>
  <rect x="1000" y="470" width="540" height="170" rx="22" fill="url(#panel)" stroke="#1ec9ff" stroke-opacity="0.35"/>
  <rect x="1000" y="660" width="540" height="170" rx="22" fill="url(#panel)" stroke="#1ec9ff" stroke-opacity="0.35"/>
  <text x="95" y="515" fill="#7dd3fc" font-size="18" font-family="Orbitron, Arial">Telemetry</text>
  <polyline points="110,760 210,700 310,710 410,640 510,655 610,590 710,600 810,560 910,580" fill="none" stroke="#00e5ff" stroke-width="4"/>
  <polyline points="110,780 210,770 310,730 410,740 510,700 610,710 710,680 810,690 910,640" fill="none" stroke="#7c3aed" stroke-width="4"/>
  <polyline points="110,735 210,720 310,760 410,690 510,710 610,650 710,675 810,620 910,600" fill="none" stroke="#ff4fd8" stroke-width="4"/>
  <text x="1030" y="515" fill="#7dd3fc" font-size="18" font-family="Orbitron, Arial">AI Suggestion</text>
  <text x="1030" y="560" fill="#e2e8f0" font-size="24" font-family="Rajdhani, Arial">Switch to power safe mode and</text>
  <text x="1030" y="595" fill="#e2e8f0" font-size="24" font-family="Rajdhani, Arial">rebalance battery bus.</text>
  <text x="1030" y="705" fill="#7dd3fc" font-size="18" font-family="Orbitron, Arial">Digital Twin</text>
  <text x="1030" y="760" fill="#e2e8f0" font-size="24" font-family="Rajdhani, Arial">Risk before: 61.4%</text>
  <text x="1030" y="795" fill="#00ffa3" font-size="24" font-family="Rajdhani, Arial">Risk after: 47.2%</text>
</svg>
